{
	"asset":{
		"generator":"Khronos glTF Blender I/O v4.3.47",
		"version":"2.0"
	},
	"scene":0,
	"scenes":[
		{
			"name":"Scene",
			"nodes":[
				7,
				8
			]
		}
	],
	"nodes":[
		{
			"mesh":0,
			"name":"defaultMaterial"
		},
		{
			"mesh":1,
			"name":"defaultMaterial.001"
		},
		{
			"mesh":2,
			"name":"defaultMaterial.002"
		},
		{
			"mesh":3,
			"name":"defaultMaterial.003"
		},
		{
			"mesh":4,
			"name":"defaultMaterial.004"
		},
		{
			"children":[
				0,
				1,
				2,
				3,
				4
			],
			"name":"fee",
			"rotation":[
				-0.70710688829422,
				0,
				0,
				0.7071066498756409
			]
		},
		{
			"children":[
				5
			],
			"name":"Collada visual scene group",
			"rotation":[
				0.70710688829422,
				0,
				0,
				0.7071066498756409
			]
		},
		{
			"children":[
				6
			],
			"name":"Sketchfab_model",
			"rotation":[
				-0.70710688829422,
				0,
				0,
				0.7071066498756409
			]
		},
		{
			"mesh":5,
			"name":"Cube"
		}
	],
	"materials":[
		{
			"doubleSided":true,
			"name":"default_1001",
			"normalTexture":{
				"index":0
			},
			"occlusionTexture":{
				"index":1
			},
			"pbrMetallicRoughness":{
				"baseColorTexture":{
					"index":2
				},
				"metallicRoughnessTexture":{
					"index":1
				}
			}
		},
		{
			"doubleSided":true,
			"name":"default_1005",
			"normalTexture":{
				"index":3
			},
			"occlusionTexture":{
				"index":4
			},
			"pbrMetallicRoughness":{
				"baseColorTexture":{
					"index":5
				},
				"metallicRoughnessTexture":{
					"index":4
				}
			}
		},
		{
			"doubleSided":true,
			"name":"default_1002",
			"normalTexture":{
				"index":6
			},
			"occlusionTexture":{
				"index":7
			},
			"pbrMetallicRoughness":{
				"baseColorTexture":{
					"index":8
				},
				"metallicRoughnessTexture":{
					"index":7
				}
			}
		},
		{
			"doubleSided":true,
			"name":"default_1004",
			"normalTexture":{
				"index":9
			},
			"occlusionTexture":{
				"index":10
			},
			"pbrMetallicRoughness":{
				"baseColorTexture":{
					"index":11
				},
				"metallicRoughnessTexture":{
					"index":10
				}
			}
		},
		{
			"doubleSided":true,
			"name":"default_1003",
			"normalTexture":{
				"index":12
			},
			"occlusionTexture":{
				"index":13
			},
			"pbrMetallicRoughness":{
				"baseColorTexture":{
					"index":14
				},
				"metallicRoughnessTexture":{
					"index":13
				}
			}
		},
		{
			"doubleSided":true,
			"name":"Material",
			"pbrMetallicRoughness":{
				"baseColorFactor":[
					0.800000011920929,
					0.800000011920929,
					0.800000011920929,
					1
				],
				"metallicFactor":0,
				"roughnessFactor":0.5
			}
		}
	],
	"meshes":[
		{
			"name":"defaultMaterial",
			"primitives":[
				{
					"attributes":{
						"POSITION":0,
						"NORMAL":1,
						"TEXCOORD_0":2
					},
					"indices":3,
					"material":0
				}
			]
		},
		{
			"name":"defaultMaterial.001",
			"primitives":[
				{
					"attributes":{
						"POSITION":4,
						"NORMAL":5,
						"TEXCOORD_0":6
					},
					"indices":7,
					"material":1
				}
			]
		},
		{
			"name":"defaultMaterial.002",
			"primitives":[
				{
					"attributes":{
						"POSITION":8,
						"NORMAL":9,
						"TEXCOORD_0":10
					},
					"indices":11,
					"material":2
				}
			]
		},
		{
			"name":"defaultMaterial.003",
			"primitives":[
				{
					"attributes":{
						"POSITION":12,
						"NORMAL":13,
						"TEXCOORD_0":14
					},
					"indices":15,
					"material":3
				}
			]
		},
		{
			"name":"defaultMaterial.004",
			"primitives":[
				{
					"attributes":{
						"POSITION":16,
						"NORMAL":17,
						"TEXCOORD_0":18
					},
					"indices":19,
					"material":4
				}
			]
		},
		{
			"name":"Cube",
			"primitives":[
				{
					"attributes":{
						"POSITION":20,
						"NORMAL":21,
						"TEXCOORD_0":22
					},
					"indices":23,
					"material":5
				}
			]
		}
	],
	"textures":[
		{
			"sampler":0,
			"source":0
		},
		{
			"sampler":0,
			"source":1
		},
		{
			"sampler":0,
			"source":2
		},
		{
			"sampler":0,
			"source":3
		},
		{
			"sampler":0,
			"source":4
		},
		{
			"sampler":0,
			"source":5
		},
		{
			"sampler":0,
			"source":6
		},
		{
			"sampler":0,
			"source":7
		},
		{
			"sampler":0,
			"source":8
		},
		{
			"sampler":0,
			"source":9
		},
		{
			"sampler":0,
			"source":10
		},
		{
			"sampler":0,
			"source":11
		},
		{
			"sampler":0,
			"source":12
		},
		{
			"sampler":0,
			"source":13
		},
		{
			"sampler":0,
			"source":14
		}
	],
	"images":[
		{
			"mimeType":"image/png",
			"name":"default_1001_normal",
			"uri":"default_1001_normal.png"
		},
		{
			"mimeType":"image/png",
			"name":"default_1001_metallicRoughness",
			"uri":"default_1001_metallicRoughness.png"
		},
		{
			"mimeType":"image/jpeg",
			"name":"default_1001_baseColor",
			"uri":"default_1001_baseColor.jpg"
		},
		{
			"mimeType":"image/png",
			"name":"default_1005_normal",
			"uri":"default_1005_normal.png"
		},
		{
			"mimeType":"image/png",
			"name":"default_1005_metallicRoughness",
			"uri":"default_1005_metallicRoughness.png"
		},
		{
			"mimeType":"image/jpeg",
			"name":"default_1005_baseColor",
			"uri":"default_1005_baseColor.jpg"
		},
		{
			"mimeType":"image/png",
			"name":"default_1002_normal",
			"uri":"default_1002_normal.png"
		},
		{
			"mimeType":"image/png",
			"name":"default_1002_metallicRoughness",
			"uri":"default_1002_metallicRoughness.png"
		},
		{
			"mimeType":"image/jpeg",
			"name":"default_1002_baseColor",
			"uri":"default_1002_baseColor.jpg"
		},
		{
			"mimeType":"image/png",
			"name":"default_1004_normal",
			"uri":"default_1004_normal.png"
		},
		{
			"mimeType":"image/png",
			"name":"default_1004_metallicRoughness",
			"uri":"default_1004_metallicRoughness.png"
		},
		{
			"mimeType":"image/jpeg",
			"name":"default_1004_baseColor",
			"uri":"default_1004_baseColor.jpg"
		},
		{
			"mimeType":"image/png",
			"name":"default_1003_normal",
			"uri":"default_1003_normal.png"
		},
		{
			"mimeType":"image/png",
			"name":"default_1003_metallicRoughness",
			"uri":"default_1003_metallicRoughness.png"
		},
		{
			"mimeType":"image/png",
			"name":"default_1003_baseColor",
			"uri":"default_1003_baseColor.png"
		}
	],
	"accessors":[
		{
			"bufferView":0,
			"componentType":5126,
			"count":5345,
			"max":[
				184.33758544921875,
				228.40887451171875,
				419.71978759765625
			],
			"min":[
				-241.89556884765625,
				-164.03408813476562,
				7.997313976287842
			],
			"type":"VEC3"
		},
		{
			"bufferView":1,
			"componentType":5126,
			"count":5345,
			"type":"VEC3"
		},
		{
			"bufferView":2,
			"componentType":5126,
			"count":5345,
			"type":"VEC2"
		},
		{
			"bufferView":3,
			"componentType":5123,
			"count":19749,
			"type":"SCALAR"
		},
		{
			"bufferView":4,
			"componentType":5126,
			"count":12764,
			"max":[
				191.2808837890625,
				229.352783203125,
				405.8310546875
			],
			"min":[
				-251.80838012695312,
				-185.68240356445312,
				0.5820159912109375
			],
			"type":"VEC3"
		},
		{
			"bufferView":5,
			"componentType":5126,
			"count":12764,
			"type":"VEC3"
		},
		{
			"bufferView":6,
			"componentType":5126,
			"count":12764,
			"type":"VEC2"
		},
		{
			"bufferView":7,
			"componentType":5123,
			"count":59781,
			"type":"SCALAR"
		},
		{
			"bufferView":8,
			"componentType":5126,
			"count":14373,
			"max":[
				300.77777099609375,
				217.132080078125,
				419.8125
			],
			"min":[
				-167.24398803710938,
				-184.494873046875,
				0.7534180283546448
			],
			"type":"VEC3"
		},
		{
			"bufferView":9,
			"componentType":5126,
			"count":14373,
			"type":"VEC3"
		},
		{
			"bufferView":10,
			"componentType":5126,
			"count":14373,
			"type":"VEC2"
		},
		{
			"bufferView":11,
			"componentType":5123,
			"count":63504,
			"type":"SCALAR"
		},
		{
			"bufferView":12,
			"componentType":5126,
			"count":34063,
			"max":[
				192.11627197265625,
				104.31758880615234,
				406.35076904296875
			],
			"min":[
				-161.90277099609375,
				-185.68246459960938,
				0.014816000126302242
			],
			"type":"VEC3"
		},
		{
			"bufferView":13,
			"componentType":5126,
			"count":34063,
			"type":"VEC3"
		},
		{
			"bufferView":14,
			"componentType":5126,
			"count":34063,
			"type":"VEC2"
		},
		{
			"bufferView":15,
			"componentType":5123,
			"count":145488,
			"type":"SCALAR"
		},
		{
			"bufferView":16,
			"componentType":5126,
			"count":4894,
			"max":[
				185.49227905273438,
				227.9334716796875,
				417.9866943359375
			],
			"min":[
				-167.50448608398438,
				-162.33517456054688,
				94.50550842285156
			],
			"type":"VEC3"
		},
		{
			"bufferView":17,
			"componentType":5126,
			"count":4894,
			"type":"VEC3"
		},
		{
			"bufferView":18,
			"componentType":5126,
			"count":4894,
			"type":"VEC2"
		},
		{
			"bufferView":19,
			"componentType":5123,
			"count":24708,
			"type":"SCALAR"
		},
		{
			"bufferView":20,
			"componentType":5126,
			"count":24,
			"max":[
				1,
				1,
				1
			],
			"min":[
				-1,
				-1,
				-1
			],
			"type":"VEC3"
		},
		{
			"bufferView":21,
			"componentType":5126,
			"count":24,
			"type":"VEC3"
		},
		{
			"bufferView":22,
			"componentType":5126,
			"count":24,
			"type":"VEC2"
		},
		{
			"bufferView":23,
			"componentType":5123,
			"count":36,
			"type":"SCALAR"
		}
	],
	"bufferViews":[
		{
			"buffer":0,
			"byteLength":64140,
			"byteOffset":0,
			"target":34962
		},
		{
			"buffer":0,
			"byteLength":64140,
			"byteOffset":64140,
			"target":34962
		},
		{
			"buffer":0,
			"byteLength":42760,
			"byteOffset":128280,
			"target":34962
		},
		{
			"buffer":0,
			"byteLength":39498,
			"byteOffset":171040,
			"target":34963
		},
		{
			"buffer":0,
			"byteLength":153168,
			"byteOffset":210540,
			"target":34962
		},
		{
			"buffer":0,
			"byteLength":153168,
			"byteOffset":363708,
			"target":34962
		},
		{
			"buffer":0,
			"byteLength":102112,
			"byteOffset":516876,
			"target":34962
		},
		{
			"buffer":0,
			"byteLength":119562,
			"byteOffset":618988,
			"target":34963
		},
		{
			"buffer":0,
			"byteLength":172476,
			"byteOffset":738552,
			"target":34962
		},
		{
			"buffer":0,
			"byteLength":172476,
			"byteOffset":911028,
			"target":34962
		},
		{
			"buffer":0,
			"byteLength":114984,
			"byteOffset":1083504,
			"target":34962
		},
		{
			"buffer":0,
			"byteLength":127008,
			"byteOffset":1198488,
			"target":34963
		},
		{
			"buffer":0,
			"byteLength":408756,
			"byteOffset":1325496,
			"target":34962
		},
		{
			"buffer":0,
			"byteLength":408756,
			"byteOffset":1734252,
			"target":34962
		},
		{
			"buffer":0,
			"byteLength":272504,
			"byteOffset":2143008,
			"target":34962
		},
		{
			"buffer":0,
			"byteLength":290976,
			"byteOffset":2415512,
			"target":34963
		},
		{
			"buffer":0,
			"byteLength":58728,
			"byteOffset":2706488,
			"target":34962
		},
		{
			"buffer":0,
			"byteLength":58728,
			"byteOffset":2765216,
			"target":34962
		},
		{
			"buffer":0,
			"byteLength":39152,
			"byteOffset":2823944,
			"target":34962
		},
		{
			"buffer":0,
			"byteLength":49416,
			"byteOffset":2863096,
			"target":34963
		},
		{
			"buffer":0,
			"byteLength":288,
			"byteOffset":2912512,
			"target":34962
		},
		{
			"buffer":0,
			"byteLength":288,
			"byteOffset":2912800,
			"target":34962
		},
		{
			"buffer":0,
			"byteLength":192,
			"byteOffset":2913088,
			"target":34962
		},
		{
			"buffer":0,
			"byteLength":72,
			"byteOffset":2913280,
			"target":34963
		}
	],
	"samplers":[
		{
			"magFilter":9729,
			"minFilter":9987
		}
	],
	"buffers":[
		{
			"byteLength":2913352,
			"uri":"untitled.bin"
		}
	]
}
